<mxfile host="app.diagrams.net" modified="2023-05-08T08:46:10.058Z" agent="Mozilla/5.0 (Windows NT 10.0; Win64; x64) AppleWebKit/537.36 (KHTML, like Gecko) Chrome/113.0.0.0 Safari/537.36" etag="Qo9jfR0tOs83yroMcOS6" version="21.2.7" type="github">
  <diagram name="Page-1" id="e7e014a7-5840-1c2e-5031-d8a46d1fe8dd">
    <mxGraphModel dx="1434" dy="796" grid="1" gridSize="10" guides="1" tooltips="1" connect="1" arrows="1" fold="1" page="1" pageScale="1" pageWidth="1169" pageHeight="826" background="none" math="0" shadow="0">
      <root>
        <mxCell id="0" />
        <mxCell id="1" parent="0" />
        <mxCell id="2" value="server" style="swimlane;whiteSpace=wrap" parent="1" vertex="1">
          <mxGeometry x="164.5" y="128" width="280" height="570" as="geometry" />
        </mxCell>
        <mxCell id="7" value="수집기" style="" parent="2" vertex="1">
          <mxGeometry x="85.5" y="52" width="110" height="50" as="geometry" />
        </mxCell>
        <mxCell id="8" value="csv 파일 저장" style="" parent="2" vertex="1">
          <mxGeometry x="85.5" y="152" width="110" height="50" as="geometry" />
        </mxCell>
        <mxCell id="10" value="조건 탐색기" style="" parent="2" vertex="1">
          <mxGeometry x="85.5" y="272" width="110" height="50" as="geometry" />
        </mxCell>
        <mxCell id="11" value="" style="endArrow=open;strokeColor=#FF0000;endFill=1;rounded=0;exitX=0;exitY=0.5;exitDx=0;exitDy=0;entryX=0;entryY=0.5;entryDx=0;entryDy=0;" parent="2" source="8" target="10" edge="1">
          <mxGeometry relative="1" as="geometry">
            <Array as="points">
              <mxPoint x="25.5" y="177" />
              <mxPoint x="25.5" y="297" />
            </Array>
          </mxGeometry>
        </mxCell>
        <mxCell id="ymUtDYAY89SmeafjaqD1-47" value="" style="endArrow=classic;html=1;rounded=0;exitX=0.5;exitY=1;exitDx=0;exitDy=0;entryX=0.5;entryY=0;entryDx=0;entryDy=0;" edge="1" parent="2" source="7" target="8">
          <mxGeometry relative="1" as="geometry">
            <mxPoint x="365.5" y="322" as="sourcePoint" />
            <mxPoint x="465.5" y="322" as="targetPoint" />
          </mxGeometry>
        </mxCell>
        <mxCell id="3" value="database" style="swimlane;whiteSpace=wrap" parent="1" vertex="1">
          <mxGeometry x="444.5" y="128" width="280" height="570" as="geometry" />
        </mxCell>
        <mxCell id="ymUtDYAY89SmeafjaqD1-43" value="nc_p_min_bithumb_t,&lt;br&gt;nc_p_3min_bithumb_t,&lt;br&gt;..." style="rounded=0;whiteSpace=wrap;html=1;" vertex="1" parent="3">
          <mxGeometry x="80.5" y="47" width="120" height="60" as="geometry" />
        </mxCell>
        <mxCell id="ymUtDYAY89SmeafjaqD1-56" value="조건 테이블" style="rounded=0;whiteSpace=wrap;html=1;" vertex="1" parent="3">
          <mxGeometry x="80.5" y="267" width="120" height="60" as="geometry" />
        </mxCell>
        <mxCell id="ymUtDYAY89SmeafjaqD1-64" value="검색 결과 저장" style="rounded=0;whiteSpace=wrap;html=1;" vertex="1" parent="3">
          <mxGeometry x="80" y="402" width="120" height="60" as="geometry" />
        </mxCell>
        <mxCell id="ymUtDYAY89SmeafjaqD1-66" value="select" style="text;html=1;align=center;verticalAlign=middle;resizable=0;points=[];autosize=1;strokeColor=none;fillColor=none;" vertex="1" parent="3">
          <mxGeometry y="270" width="50" height="30" as="geometry" />
        </mxCell>
        <mxCell id="4" value="web" style="swimlane;whiteSpace=wrap" parent="1" vertex="1">
          <mxGeometry x="724.5" y="128" width="280" height="570" as="geometry" />
        </mxCell>
        <mxCell id="ymUtDYAY89SmeafjaqD1-61" value="사용자 지정 조건&lt;br&gt;추가 / 갱신" style="rounded=0;whiteSpace=wrap;html=1;" vertex="1" parent="4">
          <mxGeometry x="85.5" y="267" width="120" height="60" as="geometry" />
        </mxCell>
        <mxCell id="ymUtDYAY89SmeafjaqD1-41" value="bithumb API" style="rounded=0;whiteSpace=wrap;html=1;" vertex="1" parent="1">
          <mxGeometry x="20" y="120" width="120" height="60" as="geometry" />
        </mxCell>
        <mxCell id="ymUtDYAY89SmeafjaqD1-45" value="" style="endArrow=classic;html=1;rounded=0;exitX=1;exitY=0.5;exitDx=0;exitDy=0;entryX=0;entryY=0.5;entryDx=0;entryDy=0;" edge="1" parent="1" source="7" target="ymUtDYAY89SmeafjaqD1-43">
          <mxGeometry relative="1" as="geometry">
            <mxPoint x="530" y="450" as="sourcePoint" />
            <mxPoint x="630" y="450" as="targetPoint" />
          </mxGeometry>
        </mxCell>
        <mxCell id="ymUtDYAY89SmeafjaqD1-46" value="Insert" style="edgeLabel;resizable=0;html=1;align=center;verticalAlign=middle;" connectable="0" vertex="1" parent="ymUtDYAY89SmeafjaqD1-45">
          <mxGeometry relative="1" as="geometry">
            <mxPoint x="-19" y="-5" as="offset" />
          </mxGeometry>
        </mxCell>
        <mxCell id="ymUtDYAY89SmeafjaqD1-49" value="" style="endArrow=classic;html=1;rounded=0;exitX=0.5;exitY=1;exitDx=0;exitDy=0;entryX=0;entryY=0.5;entryDx=0;entryDy=0;" edge="1" parent="1" source="ymUtDYAY89SmeafjaqD1-41" target="7">
          <mxGeometry relative="1" as="geometry">
            <mxPoint x="530" y="450" as="sourcePoint" />
            <mxPoint x="630" y="450" as="targetPoint" />
            <Array as="points">
              <mxPoint x="80" y="205" />
            </Array>
          </mxGeometry>
        </mxCell>
        <mxCell id="ymUtDYAY89SmeafjaqD1-50" value="1분, 3분, ...&amp;nbsp; 데이터" style="edgeLabel;resizable=0;html=1;align=center;verticalAlign=middle;" connectable="0" vertex="1" parent="ymUtDYAY89SmeafjaqD1-49">
          <mxGeometry relative="1" as="geometry">
            <mxPoint x="-30" y="15" as="offset" />
          </mxGeometry>
        </mxCell>
        <mxCell id="ymUtDYAY89SmeafjaqD1-53" value="" style="endArrow=none;html=1;rounded=0;" edge="1" parent="1">
          <mxGeometry width="50" height="50" relative="1" as="geometry">
            <mxPoint x="160" y="360" as="sourcePoint" />
            <mxPoint x="440" y="360" as="targetPoint" />
          </mxGeometry>
        </mxCell>
        <mxCell id="ymUtDYAY89SmeafjaqD1-55" value="조건 탐색" style="edgeLabel;html=1;align=center;verticalAlign=middle;resizable=0;points=[];" vertex="1" connectable="0" parent="ymUtDYAY89SmeafjaqD1-53">
          <mxGeometry x="0.5857" y="-3" relative="1" as="geometry">
            <mxPoint x="28" y="7" as="offset" />
          </mxGeometry>
        </mxCell>
        <mxCell id="ymUtDYAY89SmeafjaqD1-59" value="" style="endArrow=classic;html=1;rounded=0;entryX=1;entryY=0.5;entryDx=0;entryDy=0;" edge="1" parent="1" target="ymUtDYAY89SmeafjaqD1-56">
          <mxGeometry width="50" height="50" relative="1" as="geometry">
            <mxPoint x="810" y="425" as="sourcePoint" />
            <mxPoint x="610" y="410" as="targetPoint" />
          </mxGeometry>
        </mxCell>
        <mxCell id="ymUtDYAY89SmeafjaqD1-63" value="" style="endArrow=classic;html=1;rounded=0;exitX=0.5;exitY=1;exitDx=0;exitDy=0;entryX=0;entryY=0.5;entryDx=0;entryDy=0;" edge="1" parent="1" source="10" target="ymUtDYAY89SmeafjaqD1-64">
          <mxGeometry width="50" height="50" relative="1" as="geometry">
            <mxPoint x="560" y="450" as="sourcePoint" />
            <mxPoint x="400" y="630" as="targetPoint" />
            <Array as="points">
              <mxPoint x="305" y="560" />
            </Array>
          </mxGeometry>
        </mxCell>
        <mxCell id="ymUtDYAY89SmeafjaqD1-65" value="" style="endArrow=classic;html=1;rounded=0;entryX=1;entryY=0.5;entryDx=0;entryDy=0;exitX=0;exitY=0.5;exitDx=0;exitDy=0;" edge="1" parent="1" source="ymUtDYAY89SmeafjaqD1-56" target="10">
          <mxGeometry width="50" height="50" relative="1" as="geometry">
            <mxPoint x="560" y="450" as="sourcePoint" />
            <mxPoint x="610" y="400" as="targetPoint" />
          </mxGeometry>
        </mxCell>
      </root>
    </mxGraphModel>
  </diagram>
</mxfile>
